<?xml version="1.0" standalone="no"?>
<!DOCTYPE svg PUBLIC "-//W3C//DTD SVG 20010904//EN"
 "http://www.w3.org/TR/2001/REC-SVG-20010904/DTD/svg10.dtd">
<svg version="1.0" xmlns="http://www.w3.org/2000/svg"
 width="512.000000pt" height="512.000000pt" viewBox="0 0 512.000000 512.000000"
 preserveAspectRatio="xMidYMid meet">
<metadata>
Created by potrace 1.11, written by Peter Selinger 2001-2013
</metadata>
<g transform="translate(0.000000,512.000000) scale(0.100000,-0.100000)"
fill="#000000" stroke="none">
<path d="M2620 4656 c-157 -56 -248 -112 -349 -216 -160 -164 -222 -382 -184
-644 28 -193 94 -331 321 -671 232 -349 296 -477 326 -648 38 -219 -18 -448
-145 -590 -44 -49 -47 -55 -22 -44 127 56 227 140 303 253 133 200 167 470 96
762 -12 47 -49 141 -85 212 -52 105 -117 200 -272 401 -71 91 -151 204 -178
250 -110 187 -139 360 -87 525 45 141 156 284 300 385 77 54 72 59 -24 25z"/>
<path d="M1960 4283 c-235 -170 -395 -411 -451 -678 -18 -87 -26 -279 -14
-365 17 -130 15 -120 34 -201 14 -62 57 -181 90 -249 93 -190 182 -304 466
-595 171 -174 231 -265 234 -352 1 -13 7 -23 15 -23 21 0 82 73 96 115 18 55
7 167 -26 253 -35 96 -146 262 -257 387 -10 11 -37 45 -60 75 -23 30 -44 57
-47 60 -15 14 -112 153 -144 207 -68 114 -129 270 -141 362 -3 20 -7 47 -10
61 -11 48 -5 299 9 374 3 17 8 49 12 71 3 22 8 43 10 46 2 3 6 21 9 39 24 136
150 375 231 439 52 41 7 20 -56 -26z"/>
<path d="M1925 4002 c-43 -10 -59 -66 -27 -95 40 -37 95 -8 90 46 -3 33 -32
56 -63 49z"/>
<path d="M1869 3773 c-8 -2 -23 -17 -33 -34 -31 -53 -3 -112 60 -125 44 -9 94
35 94 82 0 61 -53 96 -121 77z"/>
<path d="M3149 3746 c-36 -12 -88 -35 -117 -51 -61 -33 -160 -125 -190 -176
l-22 -36 46 -59 c94 -120 174 -259 225 -387 23 -56 22 -54 43 -142 49 -204 30
-422 -53 -615 -63 -146 -163 -284 -269 -372 -45 -38 -31 -35 26 4 81 55 225
208 281 299 112 182 151 335 146 574 -3 181 -16 255 -77 445 -36 108 -41 138
-42 220 -1 130 13 189 65 268 16 24 29 45 29 48 0 8 -25 3 -91 -20z"/>
<path d="M1419 3699 c-133 -154 -209 -324 -240 -534 -15 -102 -12 -297 5 -395
94 -521 512 -929 999 -974 46 -4 64 8 30 21 -31 12 -156 95 -228 152 -319 256
-548 625 -611 985 -23 127 -22 351 1 467 11 53 14 66 24 111 6 26 24 84 41
129 16 45 28 84 26 86 -2 2 -23 -19 -47 -48z"/>
<path d="M1918 3512 c-38 -5 -78 -55 -78 -97 0 -68 77 -117 138 -88 29 14 62
64 57 87 -16 76 -52 106 -117 98z"/>
<path d="M2043 3259 c-17 -5 -43 -24 -58 -41 -24 -28 -27 -39 -23 -85 5 -55
26 -85 76 -104 77 -30 162 30 162 113 -1 83 -76 140 -157 117z"/>
<path d="M2193 2965 c-114 -48 -77 -225 48 -229 67 -1 115 40 123 106 12 95
-81 161 -171 123z"/>
<path d="M3426 2903 c25 -133 5 -303 -48 -406 l-19 -39 42 23 c56 32 134 112
158 165 24 49 23 132 -2 180 -16 32 -100 119 -128 134 -14 8 -14 2 -3 -57z"/>
<path d="M2404 2699 c-114 -31 -96 -202 23 -213 75 -8 134 59 118 133 -12 57
-81 95 -141 80z"/>
<path d="M2499 2402 c-67 -63 -31 -155 61 -155 58 0 100 71 74 125 -16 32 -26
38 -71 48 -30 7 -39 4 -64 -18z"/>
<path d="M3330 2115 c-108 -28 -212 -93 -302 -188 -27 -28 -47 -52 -45 -53 1
-1 38 15 82 37 194 95 378 120 483 65 l27 -14 -40 -8 c-22 -5 -42 -9 -45 -9
-74 -15 -190 -61 -190 -75 0 -14 53 -43 120 -66 84 -30 203 -27 301 6 71 24
221 101 226 116 5 14 -152 109 -235 143 -137 57 -276 73 -382 46z"/>
<path d="M1525 1599 c-168 -59 -264 -168 -301 -343 -54 -257 57 -511 257 -587
98 -37 223 -34 349 9 110 38 163 42 241 17 17 -6 18 -4 8 22 -6 17 -12 125
-14 268 -3 329 -22 395 -140 511 -82 81 -145 106 -275 110 -52 2 -108 -1 -125
-7z m211 -217 c78 -40 115 -113 121 -242 10 -244 11 -240 -17 -246 -14 -3 -52
-15 -85 -26 -163 -54 -294 8 -325 155 -39 193 23 340 160 380 32 9 110 -2 146
-21z"/>
<path d="M2520 1594 c-68 -18 -139 -63 -188 -119 -43 -49 -88 -136 -97 -185
-3 -18 -9 -38 -12 -44 -4 -5 -7 -148 -8 -318 l-1 -307 42 -31 c48 -34 51 -37
118 -100 l47 -45 -3 128 c-3 110 -1 126 12 121 92 -39 123 -47 196 -50 215 -8
377 118 427 333 33 140 12 327 -50 432 -50 86 -139 156 -234 184 -62 19 -183
19 -249 1z m219 -208 c33 -18 74 -62 95 -102 38 -76 39 -219 4 -304 -36 -86
-105 -132 -194 -131 -136 1 -212 90 -219 256 -6 145 37 240 128 280 58 25 138
25 186 1z"/>
<path d="M3155 1574 c17 -40 45 -160 51 -218 3 -34 7 -74 9 -91 2 -16 4 -75 6
-129 3 -164 40 -279 117 -361 82 -88 167 -126 285 -128 l79 -2 18 47 c10 26
23 71 30 100 6 29 14 61 16 70 5 16 3 16 -32 2 -42 -18 -126 -20 -165 -5 -81
30 -135 124 -142 246 l-4 66 46 24 c74 37 138 114 161 195 8 27 7 30 -8 26
-51 -16 -113 -26 -159 -26 -50 0 -52 1 -63 36 -26 77 -111 140 -214 160 -36 6
-39 5 -31 -12z"/>
<path d="M3490 1560 c0 -5 5 -10 10 -10 6 0 10 -14 10 -31 0 -19 4 -28 11 -24
6 4 8 13 5 20 -2 7 2 22 10 34 14 20 14 21 -15 21 -17 0 -31 -4 -31 -10z"/>
<path d="M3560 1536 c0 -26 4 -33 18 -32 9 0 20 6 24 11 4 6 8 1 8 -9 0 -33
14 -7 16 29 2 38 -9 45 -25 18 -9 -17 -10 -17 -16 0 -12 28 -25 19 -25 -17z"/>
</g>
</svg>
